{
  "accessors": [
    {
      "bufferView": 2,
      "componentType": 5126,
      "count": 17702,
      "max": [
        0.09930171817541122,
        0.0019115699687972665,
        0.11324399709701538
      ],
      "min": [
        0.010386500507593155,
        -0.1303589791059494,
        -0.11392436921596527
      ],
      "type": "VEC3"
    },
    {
      "bufferView": 2,
      "byteOffset": 212424,
      "componentType": 5126,
      "count": 17702,
      "max": [
        0.999940037727356,
        0.9999724626541138,
        0.9997979998588562
      ],
      "min": [
        -0.9999954104423523,
        -0.9997087121009827,
        -0.9997917413711548
      ],
      "type": "VEC3"
    },
    {
      "bufferView": 1,
      "componentType": 5126,
      "count": 17702,
      "max": [
        0.9969548583030701,
        0.9980442523956299
      ],
      "min": [
        0.0019531199941411614,
        0.0019531199941411614
      ],
      "type": "VEC2"
    },
    {
      "bufferView": 0,
      "componentType": 5125,
      "count": 74538,
      "type": "SCALAR"
    }
  ],
  "asset": {
    "extras": {
      "author": "ivandrodejesues908 (https://sketchfab.com/ivandrodejesues908)",
      "license": "CC-BY-4.0 (http://creativecommons.org/licenses/by/4.0/)",
      "source": "https://sketchfab.com/3d-models/jordan-4-retro-travis-scott-purple-e055428e1f294a73b5e6518a4f902c04",
      "title": "Jordan 4 Retro Travis Scott \"Purple\""
    },
    "generator": "Sketchfab-14.21.0",
    "version": "2.0"
  },
  "bufferViews": [
    {
      "buffer": 0,
      "byteLength": 298152,
      "name": "floatBufferViews",
      "target": 34963
    },
    {
      "buffer": 0,
      "byteLength": 141616,
      "byteOffset": 298152,
      "byteStride": 8,
      "name": "floatBufferViews",
      "target": 34962
    },
    {
      "buffer": 0,
      "byteLength": 424848,
      "byteOffset": 439768,
      "byteStride": 12,
      "name": "floatBufferViews",
      "target": 34962
    }
  ],
  "buffers": [
    {
      "byteLength": 864616,
      "uri": "cene.bin"
    }
  ],
  "images": [
    {
      "uri": "textures/mat_0.003_baseColor.png"
    }
  ],
  "materials": [
    {
      "doubleSided": true,
      "name": "mat_0.003",
      "pbrMetallicRoughness": {
        "baseColorTexture": {
          "index": 0
        },
        "metallicFactor": 0.4800897786303598
      }
    }
  ],
  "meshes": [
    {
      "name": "Travis_x_Scott_Cactus_Jack_x_Air_Jordan_4_High_Retro_mat_0.0_mat_0.003_0",
      "primitives": [
        {
          "attributes": {
            "NORMAL": 1,
            "POSITION": 0,
            "TEXCOORD_0": 2
          },
          "indices": 3,
          "material": 0,
          "mode": 4
        }
      ]
    }
  ],
  "nodes": [
    {
      "children": [
        1
      ],
      "matrix": [
        1.0,
        6.290011496532519e-32,
        -2.832769343193999e-16,
        0.0,
        -2.832769343193999e-16,
        2.220446049250313e-16,
        -1.0,
        0.0,
        0.0,
        1.0,
        2.220446049250313e-16,
        0.0,
        0.0,
        0.0,
        0.0,
        1.0
      ],
      "name": "Sketchfab_model"
    },
    {
      "children": [
        2
      ],
      "matrix": [
        0.009999999776482582,
        0.0,
        0.0,
        0.0,
        0.0,
        0.0,
        0.009999999776482582,
        0.0,
        0.0,
        -0.009999999776482582,
        0.0,
        0.0,
        0.0,
        0.0,
        0.0,
        1.0
      ],
      "name": "619dd104800049dd8d420f910a99bd0c.fbx"
    },
    {
      "children": [
        3
      ],
      "name": "RootNode"
    },
    {
      "children": [
        4
      ],
      "matrix": [
        222.8142547607422,
        0.0,
        0.0,
        0.0,
        0.0,
        -216.63644325529108,
        -52.1041608538319,
        0.0,
        0.0,
        52.1041608538319,
        -216.63644325529108,
        0.0,
        0.0,
        16.607948303222656,
        8.006636619567871,
        1.0
      ],
      "name": "Travis_x_Scott_Cactus_Jack_x_Air_Jordan_4_High_Retro_mat_0.0"
    },
    {
      "mesh": 0,
      "name": "Travis_x_Scott_Cactus_Jack_x_Air_Jordan_4_High_Retro_mat_0.0_mat_0.003_0"
    }
  ],
  "samplers": [
    {
      "magFilter": 9729,
      "minFilter": 9987,
      "wrapS": 10497,
      "wrapT": 10497
    }
  ],
  "scene": 0,
  "scenes": [
    {
      "name": "Sketchfab_Scene",
      "nodes": [
        0
      ]
    }
  ],
  "textures": [
    {
      "sampler": 0,
      "source": 0
    }
  ]
}
